<svg width="28" height="25" viewBox="0 0 28 25" fill="none" xmlns="http://www.w3.org/2000/svg">
<path d="M20.0873 0C17.768 0 15.542 1.08 14.0891 2.78667C12.6362 1.08 10.4101 0 8.09083 0C3.98537 0 0.759644 3.22667 0.759644 7.33333C0.759644 12.3733 5.29165 16.48 12.1563 22.72L14.0891 24.4667L16.0218 22.7067C22.8865 16.48 27.4185 12.3733 27.4185 7.33333C27.4185 3.22667 24.1928 0 20.0873 0ZM14.2224 20.7333L14.0891 20.8667L13.9558 20.7333C7.61097 14.9867 3.42553 11.1867 3.42553 7.33333C3.42553 4.66667 5.42494 2.66667 8.09083 2.66667C10.1436 2.66667 12.143 3.98667 12.8494 5.81333H15.342C16.0352 3.98667 18.0346 2.66667 20.0873 2.66667C22.7532 2.66667 24.7526 4.66667 24.7526 7.33333C24.7526 11.1867 20.5672 14.9867 14.2224 20.7333Z" fill="#A9C7DB"/>
</svg>
